<svg width="49" height="40" xmlns="http://www.w3.org/2000/svg">
 <g>
  <title>Layer 1</title>
  <g id="svg_17" stroke="null">
   <path fill="none" id="svg_3" d="m15.02403,14.63068c-0.08789,0 -0.35423,0.01707 -0.96677,-0.08807c-0.88342,-0.15163 -2.18857,-0.4722 -3.42765,-0.79261c-1.13538,-0.2936 -2.02703,-0.50486 -2.81243,-0.70455c-0.62019,-0.15768 -1.16148,-0.27468 -1.66988,-0.44034c-0.37378,-0.1218 -0.61757,-0.24397 -0.70311,-0.2642c-0.19127,-0.04524 -0.17578,-0.17614 -0.35155,-0.17614c0,0 -0.05426,0.08136 -0.08789,0c-0.04757,-0.11507 0.25976,-0.18817 1.05466,-0.44034c0.87479,-0.27751 2.19373,-0.80143 3.51554,-1.32102c1.1396,-0.44796 2.20142,-0.77934 3.60343,-1.23295c1.05793,-0.34229 2.46933,-0.86088 3.51554,-1.32102c1.15227,-0.50678 2.566,-1.08284 3.0761,-1.32102c0.40621,-0.18967 0.77551,-0.30703 0.96677,-0.35227c0.17108,-0.04047 0.35155,0 0.35155,0c0.17578,-0.17614 0.17578,-0.17614 0.26367,-0.17614c0.08789,0 0.08789,0.17614 0.08789,0.17614c0,0.08807 -0.066,0.25602 -0.08789,0.70455c-0.04314,0.88402 0.08789,1.9375 0.08789,3.6108c0,2.02557 -0.08789,3.96307 -0.08789,6.07671c0,3.25852 0.04394,5.28287 0.08789,7.66193c0.03416,1.84912 0.17578,3.69886 0.17578,5.19602c0,1.14489 0.04386,1.93339 0.08789,2.64205c0.02184,0.35159 0.08789,0.79261 0.08789,1.05682c0,0.2642 0,0.35227 0,0.52841c0,0 0,-0.08807 0,-0.52841c0,-0.70455 -0.00511,-1.6011 -0.26367,-2.73011c-0.26737,-1.16751 -0.64233,-2.50147 -2.19721,-4.22727c-1.29167,-1.43366 -3.3059,-2.65543 -5.27331,-3.25852c-2.07913,-0.63734 -3.51884,-0.69638 -4.48231,-0.61648c-0.53278,0.04418 -0.96677,0.35227 -1.14255,0.52841c-0.35155,0.35227 -0.42097,0.44725 -0.52733,0.70455c-0.15041,0.36387 -0.26125,0.58543 -0.35155,0.96875c-0.04039,0.17142 0,0.44034 0,0.52841c0,0.08807 -0.08789,0.17614 -0.08789,0.17614l0,0.08807" stroke="#000"/>
   <path fill="none" id="svg_4" d="m17.13336,14.98296c0.08789,0.17614 0.08789,0.52841 0.08789,0.79261c0,0.44034 0,0.61648 0,0.79261c0,0.17614 0,0.35227 0,0.52841c0,0.08807 0,0.17614 0,0.35227c0,0.08807 0,0.17614 0,0.17614c0,0.17614 0,0.17614 0,0.2642c0,0.08807 0.06215,0.11386 0,0.17614c-0.06215,0.06227 -0.08789,0.08807 -0.08789,0.2642c0,0.08807 0,0.17614 0,0.17614c0,0.08807 0.03363,0.18284 0,0.2642c-0.04757,0.11507 -0.08789,0.08807 -0.08789,0.17614c0,0.08807 0,0.08807 0,0.17614c0,0.08807 0,0.17614 0,0.2642c0,0 0,0.17614 0,0.17614c0,0.08807 0,0.17614 0,0.2642c0,0.08807 0,0.08807 0,0.17614c0,0.08807 0,0.08807 0,0.17614c0,0.08807 0,0.17614 0,0.2642l0,0l0.08789,0l0,0.08807" stroke="#000"/>
   <path fill="none" id="svg_6" d="m37.08406,6.70455c0,0 -0.08939,-0.03632 -0.52733,0c-0.53278,0.04418 -1.40622,0.08807 -2.46088,0.08807c-1.14255,0 -2.46088,0 -3.33976,0c-1.14255,0 -2.11126,0.01435 -2.81243,-0.08807c-0.52901,-0.07727 -1.14595,-0.13382 -1.40622,-0.17614c-0.27434,-0.04461 -0.35155,-0.17614 -0.70311,-0.17614c-0.17578,0 -0.18048,-0.0476 -0.35155,-0.08807c-0.19127,-0.04524 -0.11363,-0.11386 -0.17578,-0.17614c-0.06215,-0.06227 -0.08789,-0.08807 -0.17578,-0.08807c-0.08789,0 -0.07276,0.61674 -0.08789,1.05682c-0.08794,2.55853 -0.12524,4.57561 0,6.51705c0.14751,2.28669 0.29996,4.39951 0.52733,6.69318c0.20922,2.11058 0.37413,3.87949 0.52733,5.63636c0.12336,1.41467 0.2203,2.55785 0.35155,3.78693c0.06612,0.6192 0.17578,1.05682 0.17578,1.32102c0,0.17614 0.04032,0.32528 0.08789,0.44034c0.06727,0.16273 0.04337,0.25351 0.08789,0.52841c0.04224,0.26079 0.08789,0.61648 0.08789,0.96875c0,0.35227 0.08789,0.52841 0.08789,0.61648c0,0.08807 -0.02825,-0.01119 0.08789,-0.2642c0.42828,-0.93308 1.33363,-2.72152 2.46088,-4.75568c1.06923,-1.92946 2.07963,-3.54003 3.42765,-4.93182c1.30135,-1.3436 2.87128,-2.25317 4.39443,-3.08239c0.69074,-0.37605 1.13188,-0.57187 1.40622,-0.61648c0.17351,-0.02821 0.43944,-0.08807 0.43944,-0.17614l0.08789,0" stroke="#000"/>
   <path fill="none" id="svg_7" d="m31.54708,20.00284c0.08789,0 0.17043,-0.09784 0.96677,-0.52841c1.83364,-0.99141 3.87255,-2.13976 6.67953,-3.17046c1.20154,-0.4412 2.08533,-0.68174 2.72454,-0.88068c0.42798,-0.1332 0.78032,-0.13153 1.05466,-0.17614c0.08675,-0.01411 0.26367,-0.08807 0.43944,-0.08807c0,0 0.08789,0 0.17578,0c0,0 0.11363,-0.06227 0.17578,0c0.12429,0.12455 0.05094,0.18369 0,0.35227c-0.09183,0.30391 -0.53018,0.9391 -1.75777,2.64205c-0.65905,0.91425 -2.35623,3.48084 -3.77921,5.98864c-1.57409,2.77412 -2.99471,5.83256 -3.60343,7.75c-0.38147,1.20161 -0.59943,2.62152 -0.791,3.43466c-0.14278,0.60608 -0.08789,0.96875 -0.17578,1.32102l0,0.2642l-0.08789,0.08807" stroke="#000"/>
  </g>
 </g>

</svg>